<svg xmlns="http://www.w3.org/2000/svg" xmlns:xlink="http://www.w3.org/1999/xlink" width="18" height="18" viewBox="0 0 18 18"><defs><clipPath id="b"><rect width="18" height="18"/></clipPath></defs><g id="a" clip-path="url(#b)"><g transform="translate(-9039 668)"><rect width="16" height="1" rx="0.5" transform="translate(9040 -651)" fill="#fff"/><path d="M.5,0h15a.5.5,0,0,1,0,1H.5a.5.5,0,0,1,0-1Z" transform="translate(9040 -651)" fill="#707070"/><rect width="14" height="1" rx="0.5" transform="translate(9041 -653)" fill="#fff"/><path d="M.5,0h13a.5.5,0,0,1,0,1H.5a.5.5,0,0,1,0-1Z" transform="translate(9041 -653)" fill="#707070"/><path d="M-1020.5,1076a.5.5,0,0,1-.5-.5.5.5,0,0,1,.5-.5v-7a.5.5,0,0,1-.5-.5.5.5,0,0,1,.5-.5h2a.5.5,0,0,1,.5.5.5.5,0,0,1-.5.5v7a.5.5,0,0,1,.5.5.5.5,0,0,1-.5.5Z" transform="translate(10062.5 -1729.5)" fill="#707070"/><path d="M-1020.5,1076a.5.5,0,0,1-.5-.5.5.5,0,0,1,.5-.5v-7a.5.5,0,0,1-.5-.5.5.5,0,0,1,.5-.5h2a.5.5,0,0,1,.5.5.5.5,0,0,1-.5.5v7a.5.5,0,0,1,.5.5.5.5,0,0,1-.5.5Z" transform="translate(10072.5 -1729.5)" fill="#707070"/><g transform="translate(9045.617 -660.5)" style="isolation:isolate"><g transform="translate(0 -1)" style="isolation:isolate"><path d="M959.031,537.875a2.473,2.473,0,0,1,1.365-.359,2.929,2.929,0,0,1,1.764.508,1.736,1.736,0,0,1,.7,1.5,1.712,1.712,0,0,1-.3,1.03,3.522,3.522,0,0,1-.686.647l-.332.26a1,1,0,0,0-.361.493,2.023,2.023,0,0,0-.06.554h-1.276a3.691,3.691,0,0,1,.152-1.1,1.922,1.922,0,0,1,.626-.7l.344-.267a1.167,1.167,0,0,0,.269-.277.938.938,0,0,0,.188-.571,1.094,1.094,0,0,0-.207-.65.881.881,0,0,0-.763-.294.835.835,0,0,0-.77.361,1.38,1.38,0,0,0-.229.753H958.1A2.193,2.193,0,0,1,959.031,537.875Zm.782,5.284h1.406v1.358h-1.406Z" transform="translate(-958.097 -537.516)" fill="#707070"/></g></g><path d="M8.757.135a.5.5,0,0,1,.486,0l7.07,3.928A.5.5,0,0,1,16.07,5H1.93a.5.5,0,0,1-.243-.937Z" transform="translate(9039 -668)" fill="#707070"/></g></g></svg>